<?xml version="1.0" encoding="utf-8"?>
<!-- Generator: Adobe Illustrator 27.4.1, SVG Export Plug-In . SVG Version: 6.00 Build 0)  -->
<svg version="1.1" id="Laag_1" xmlns="http://www.w3.org/2000/svg" xmlns:xlink="http://www.w3.org/1999/xlink" x="0px" y="0px"
	 viewBox="0 0 403.6 178.5" style="enable-background:new 0 0 403.6 178.5;" xml:space="preserve">
<style type="text/css">
	.st0{enable-background:new    ;}
	.st1{fill:#FFFFFF;}
	.st2{fill:none;stroke:#1D1D1B;stroke-width:2;stroke-miterlimit:10;}
	.st3{fill:#FFFFFF;stroke:#1D1D1B;stroke-width:2;stroke-miterlimit:10;}
	.st4{fill:#1D1D1B;}
</style>
<g>
	<g id="C">
		<g class="st0">
			<path class="st1" d="M322.1,83c6.2,0,12.1,1.4,17.9,4.1c2.7,1.3,4.6,1.9,5.6,1.9c0.8,0,2-0.2,3.7-0.6c0.5-0.1,1.2-0.2,1.8-0.2
				c2.2,0,4.1,1,5.8,3c4.1,4.9,6.1,11,6.1,18.3c0,5.1-1.8,8.9-5.3,11.2c-1.9,1.3-4,1.9-6.4,1.9c-2.2,0-3.9-0.5-5.3-1.4
				s-2.7-2.6-3.9-4.9c-1.8-3.3-3.3-5.7-4.4-7.2s-2.5-2.8-4.2-4c-4.1-2.9-8.4-4.3-12.9-4.3c-4.4,0-7.8,1.6-10.4,4.7
				c-2.6,3.2-3.8,7.4-3.8,12.7c0,7.3,1.8,13.9,5.5,20c5,8.1,12.1,12.1,21.4,12.1c3.4,0,6.8-0.6,10.2-1.7c3.4-1.1,6-2.6,7.8-4.4
				c1.6-1.5,2.9-2.3,3.9-2.3c1.5,0,2.7,0.7,3.8,2.1c1.1,1.4,1.6,3,1.6,5c0,2.5-0.7,5.2-2.2,8.2s-3.3,5.4-5.3,7.2
				c-0.9,0.7-2.7,1.4-5.5,1.9c-1.6,0.3-3.7,1.1-6.4,2.3c-6.3,3-12.8,4.5-19.5,4.5c-7.1,0-14.1-1.6-21.1-4.8
				c-8.2-3.7-14.6-9.3-19.3-16.9c-4.7-7.4-7-15.1-7-23.2c0-9.4,2.9-18,8.8-25.7c5.1-6.7,11.7-11.9,19.9-15.4
				C309.1,84.3,315.5,83,322.1,83z"/>
		</g>
		<g class="st0">
			<path class="st2" d="M322.1,83c6.2,0,12.1,1.4,17.9,4.1c2.7,1.3,4.6,1.9,5.6,1.9c0.8,0,2-0.2,3.7-0.6c0.5-0.1,1.2-0.2,1.8-0.2
				c2.2,0,4.1,1,5.8,3c4.1,4.9,6.1,11,6.1,18.3c0,5.1-1.8,8.9-5.3,11.2c-1.9,1.3-4,1.9-6.4,1.9c-2.2,0-3.9-0.5-5.3-1.4
				s-2.7-2.6-3.9-4.9c-1.8-3.3-3.3-5.7-4.4-7.2s-2.5-2.8-4.2-4c-4.1-2.9-8.4-4.3-12.9-4.3c-4.4,0-7.8,1.6-10.4,4.7
				c-2.6,3.2-3.8,7.4-3.8,12.7c0,7.3,1.8,13.9,5.5,20c5,8.1,12.1,12.1,21.4,12.1c3.4,0,6.8-0.6,10.2-1.7c3.4-1.1,6-2.6,7.8-4.4
				c1.6-1.5,2.9-2.3,3.9-2.3c1.5,0,2.7,0.7,3.8,2.1c1.1,1.4,1.6,3,1.6,5c0,2.5-0.7,5.2-2.2,8.2s-3.3,5.4-5.3,7.2
				c-0.9,0.7-2.7,1.4-5.5,1.9c-1.6,0.3-3.7,1.1-6.4,2.3c-6.3,3-12.8,4.5-19.5,4.5c-7.1,0-14.1-1.6-21.1-4.8
				c-8.2-3.7-14.6-9.3-19.3-16.9c-4.7-7.4-7-15.1-7-23.2c0-9.4,2.9-18,8.8-25.7c5.1-6.7,11.7-11.9,19.9-15.4
				C309.1,84.3,315.5,83,322.1,83z"/>
		</g>
	</g>
	<g id="I">
		<g class="st0">
			<path class="st1" d="M273.7,83.4c4.8,0,9.4,0.4,13.6,1.3c5.8,1.1,8.6,3.6,8.6,7.3c0,1.2-0.3,2.1-0.9,2.8c-0.6,0.6-2,1.5-4.3,2.7
				c-1.9,1-3.2,3.1-3.8,6.4c-0.6,3.3-0.9,9.7-0.9,19.3c0,16.2,0.4,26.2,1.2,30c0.3,1.2,0.8,2.2,1.4,2.8c0.6,0.7,1.7,1.4,3.2,2.1
				c2.8,1.3,4.2,3.1,4.2,5.5c0,3.4-2.6,5.7-7.7,7c-5.6,1.4-12.4,2-20.5,2c-13.8,0-20.7-2.6-20.7-7.9c0-1.9,1.4-3.7,4.1-5.3
				c2.1-1.3,3.3-3,3.7-5.2c0.8-4.8,1.2-15.1,1.2-30.7c0-10.8-0.5-17.8-1.6-20.8c-0.6-1.7-2-3.3-4.2-4.7c-1.7-1.1-2.9-2.1-3.5-2.9
				s-0.9-1.7-0.9-2.9c0-1.8,0.9-3.3,2.6-4.3c1.8-1.1,4.9-2,9.3-2.9C263,83.9,268.3,83.4,273.7,83.4z"/>
		</g>
		<g class="st0">
			<path class="st2" d="M273.7,83.4c4.8,0,9.4,0.4,13.6,1.3c5.8,1.1,8.6,3.6,8.6,7.3c0,1.2-0.3,2.1-0.9,2.8c-0.6,0.6-2,1.5-4.3,2.7
				c-1.9,1-3.2,3.1-3.8,6.4c-0.6,3.3-0.9,9.7-0.9,19.3c0,16.2,0.4,26.2,1.2,30c0.3,1.2,0.8,2.2,1.4,2.8c0.6,0.7,1.7,1.4,3.2,2.1
				c2.8,1.3,4.2,3.1,4.2,5.5c0,3.4-2.6,5.7-7.7,7c-5.6,1.4-12.4,2-20.5,2c-13.8,0-20.7-2.6-20.7-7.9c0-1.9,1.4-3.7,4.1-5.3
				c2.1-1.3,3.3-3,3.7-5.2c0.8-4.8,1.2-15.1,1.2-30.7c0-10.8-0.5-17.8-1.6-20.8c-0.6-1.7-2-3.3-4.2-4.7c-1.7-1.1-2.9-2.1-3.5-2.9
				s-0.9-1.7-0.9-2.9c0-1.8,0.9-3.3,2.6-4.3c1.8-1.1,4.9-2,9.3-2.9C263,83.9,268.3,83.4,273.7,83.4z"/>
		</g>
	</g>
	<g id="S">
		<g class="st0">
			<path class="st1" d="M218.6,83c4.4,0,10.1,1.1,17.1,3.2c0.8,0.3,1.5,0.4,2,0.4c0.4,0,1.7-0.4,3.8-1.1c0.7-0.3,1.4-0.4,2.2-0.4
				c2.8,0,5.8,2.2,9,6.7c3.1,4.5,4.7,8.8,4.7,12.8c0,2.4-0.7,4.4-2.1,6s-3.1,2.4-5.2,2.4c-1.7,0-3.1-0.3-4.1-1c-1.1-0.7-3.4-2.7-7-6
				c-5.1-4.7-10.1-7.1-15-7.1c-2.4,0-4.3,0.6-5.7,1.7s-2.1,2.6-2.1,4.5c0,3.7,3.2,6.4,9.7,8.3c8.8,2.6,14.4,4.5,16.8,5.6
				c10.8,5.2,16.2,13,16.2,23.2c0,9-3.7,16.4-11,22.1c-7.5,5.8-17.4,8.8-29.5,8.8c-5.4,0-11.1-0.6-17.1-1.9c-6-1.3-10.3-2.8-13-4.5
				c-2-1.4-3.9-4.3-5.5-8.8s-2.4-9-2.4-13.3c0-2.1,0.4-3.6,1.3-4.7c1.1-1.4,2.4-2,4-2s3.1,0.8,4.6,2.5c0.9,0.9,3,3.9,6.3,8.9
				c1.6,2.4,4,4.3,7.5,5.9c3.4,1.6,6.9,2.3,10.6,2.3c3.1,0,5.7-0.6,7.6-1.7c1.9-1.2,2.9-2.7,2.9-4.5c0-1.7-0.8-3.1-2.3-4.4
				c-1.5-1.2-4-2.4-7.4-3.4c-6-1.9-10.7-3.6-13.8-5.2c-3.2-1.6-6.1-3.6-8.9-6c-6.7-5.9-10-12.6-10-20.2c0-3.7,0.9-7.3,2.6-10.9
				c1.7-3.5,4.2-6.6,7.4-9.2C199.7,85.9,208.4,83,218.6,83z"/>
		</g>
		<g class="st0">
			<path class="st2" d="M218.6,83c4.4,0,10.1,1.1,17.1,3.2c0.8,0.3,1.5,0.4,2,0.4c0.4,0,1.7-0.4,3.8-1.1c0.7-0.3,1.4-0.4,2.2-0.4
				c2.8,0,5.8,2.2,9,6.7c3.1,4.5,4.7,8.8,4.7,12.8c0,2.4-0.7,4.4-2.1,6s-3.1,2.4-5.2,2.4c-1.7,0-3.1-0.3-4.1-1c-1.1-0.7-3.4-2.7-7-6
				c-5.1-4.7-10.1-7.1-15-7.1c-2.4,0-4.3,0.6-5.7,1.7s-2.1,2.6-2.1,4.5c0,3.7,3.2,6.4,9.7,8.3c8.8,2.6,14.4,4.5,16.8,5.6
				c10.8,5.2,16.2,13,16.2,23.2c0,9-3.7,16.4-11,22.1c-7.5,5.8-17.4,8.8-29.5,8.8c-5.4,0-11.1-0.6-17.1-1.9c-6-1.3-10.3-2.8-13-4.5
				c-2-1.4-3.9-4.3-5.5-8.8s-2.4-9-2.4-13.3c0-2.1,0.4-3.6,1.3-4.7c1.1-1.4,2.4-2,4-2s3.1,0.8,4.6,2.5c0.9,0.9,3,3.9,6.3,8.9
				c1.6,2.4,4,4.3,7.5,5.9c3.4,1.6,6.9,2.3,10.6,2.3c3.1,0,5.7-0.6,7.6-1.7c1.9-1.2,2.9-2.7,2.9-4.5c0-1.7-0.8-3.1-2.3-4.4
				c-1.5-1.2-4-2.4-7.4-3.4c-6-1.9-10.7-3.6-13.8-5.2c-3.2-1.6-6.1-3.6-8.9-6c-6.7-5.9-10-12.6-10-20.2c0-3.7,0.9-7.3,2.6-10.9
				c1.7-3.5,4.2-6.6,7.4-9.2C199.7,85.9,208.4,83,218.6,83z"/>
		</g>
	</g>
	<g id="U">
		<g class="st0">
			<path class="st1" d="M187.1,120.9v15.5c0,9.3-0.7,16-2.1,19.9c-3,8.2-9.6,14.1-19.8,17.8c-6.2,2.3-13.2,3.4-20.9,3.4
				c-13.6,0-24.4-3.2-32.6-9.7c-4-3.2-6.7-6.8-8.2-11s-2.3-10.2-2.3-18.1c0-3.1,0.1-8.2,0.3-15.2c0.1-5,0.2-8.3,0.2-9.9
				c0-3.5-0.3-5.9-0.8-7.3c-0.5-1.4-1.7-2.6-3.5-3.8c-2.8-1.8-4.2-3.8-4.2-6.1c0-1.6,0.7-3.1,2.1-4.4s3.3-2.1,5.6-2.6
				c4.7-0.9,10.1-1.4,16.5-1.4c7,0,12.8,0.5,17.4,1.6c4.5,1,6.8,3.3,6.8,6.9c0,1.8-0.7,3.2-2,4.2c-0.3,0.3-1.6,0.9-3.8,2
				c-1.4,0.6-2.3,1.7-2.8,3.2c-0.5,1.6-0.7,4.1-0.7,7.7c0,3.7-0.2,11.6-0.5,23.8c-0.2,7.3,1.8,12.8,5.9,16.6
				c3.4,3.1,7.7,4.7,13.1,4.7c3.4,0,6.4-0.6,9.2-1.9c2.7-1.2,4.8-2.9,6.3-5.1c1.1-1.6,1.9-3.5,2.3-5.5c0.4-2,0.6-4.8,0.6-8.3v-14
				c-0.2-10.7-0.5-17-0.9-18.8s-1.8-3.3-4.1-4.3c-2.2-1-3.7-1.9-4.5-2.7c-0.8-0.8-1.2-1.8-1.2-3c0-2.5,1.5-4.4,4.5-5.6
				s7.9-1.7,14.6-1.7c6.6,0,11.3,0.6,14.2,1.7s4.4,3,4.4,5.5c0,1.2-0.3,2.1-0.8,2.7s-1.8,1.5-4,2.7c-2.2,1.3-3.5,2.6-3.8,4.1
				C187.4,106.1,187.2,111.5,187.1,120.9z"/>
		</g>
		<g class="st0">
			<path class="st2" d="M187.1,120.9v15.5c0,9.3-0.7,16-2.1,19.9c-3,8.2-9.6,14.1-19.8,17.8c-6.2,2.3-13.2,3.4-20.9,3.4
				c-13.6,0-24.4-3.2-32.6-9.7c-4-3.2-6.7-6.8-8.2-11s-2.3-10.2-2.3-18.1c0-3.1,0.1-8.2,0.3-15.2c0.1-5,0.2-8.3,0.2-9.9
				c0-3.5-0.3-5.9-0.8-7.3c-0.5-1.4-1.7-2.6-3.5-3.8c-2.8-1.8-4.2-3.8-4.2-6.1c0-1.6,0.7-3.1,2.1-4.4s3.3-2.1,5.6-2.6
				c4.7-0.9,10.1-1.4,16.5-1.4c7,0,12.8,0.5,17.4,1.6c4.5,1,6.8,3.3,6.8,6.9c0,1.8-0.7,3.2-2,4.2c-0.3,0.3-1.6,0.9-3.8,2
				c-1.4,0.6-2.3,1.7-2.8,3.2c-0.5,1.6-0.7,4.1-0.7,7.7c0,3.7-0.2,11.6-0.5,23.8c-0.2,7.3,1.8,12.8,5.9,16.6
				c3.4,3.1,7.7,4.7,13.1,4.7c3.4,0,6.4-0.6,9.2-1.9c2.7-1.2,4.8-2.9,6.3-5.1c1.1-1.6,1.9-3.5,2.3-5.5c0.4-2,0.6-4.8,0.6-8.3v-14
				c-0.2-10.7-0.5-17-0.9-18.8s-1.8-3.3-4.1-4.3c-2.2-1-3.7-1.9-4.5-2.7c-0.8-0.8-1.2-1.8-1.2-3c0-2.5,1.5-4.4,4.5-5.6
				s7.9-1.7,14.6-1.7c6.6,0,11.3,0.6,14.2,1.7s4.4,3,4.4,5.5c0,1.2-0.3,2.1-0.8,2.7s-1.8,1.5-4,2.7c-2.2,1.3-3.5,2.6-3.8,4.1
				C187.4,106.1,187.2,111.5,187.1,120.9z"/>
		</g>
	</g>
	<g id="M">
		<g class="st0">
			<path class="st1" d="M66.4,149.5l-7.6,17.1c-1.3,2.9-2.4,4.8-3.2,5.8s-1.7,1.5-2.7,1.5c-0.9,0-1.8-0.4-2.5-1.2
				c-0.5-0.5-1.5-2.4-3.2-5.6c-1.7-3.2-3.1-6.1-4.2-8.6l-8.4-18.8c-1.1-2.6-2.3-3.9-3.6-3.9c-1.4,0-2.1,1.1-2.2,3.4
				c-0.3,5-0.4,9.6-0.4,13.8c0,4.4,0.2,7.4,0.6,8.9c0.3,0.9,0.7,1.6,1.2,2s1.8,1.2,4,2.3c1.4,0.7,2.1,2,2.1,3.7
				c0,4.7-6.1,7.1-18.2,7.1c-10.2,0-15.3-2.3-15.3-6.9c0-1.2,0.3-2,0.8-2.6c0.5-0.5,1.9-1.3,4.1-2.4c1.4-0.6,2.3-1.5,2.8-2.6
				s0.9-3.2,1.2-6.4c0.4-3.4,0.7-8.9,1.1-16.6c0.3-7.7,0.5-14.3,0.5-19.8c0-6.9-0.5-11.6-1.6-14c-0.4-0.8-0.8-1.5-1.3-1.9
				s-1.4-1-2.8-1.6c-3-1.4-4.5-3.3-4.5-5.6c0-1.5,0.6-2.8,1.7-4.1c1.1-1.2,2.6-2.1,4.5-2.6s4.3-1,7.5-1.4c3.1-0.4,5.7-0.6,7.9-0.6
				c5.4,0,9.2,0.4,11.5,1.3c1.1,0.4,2,1,2.6,1.7s1.5,2.2,2.7,4.4l13.2,24.3c1.4,2.7,2.4,4.3,3,4.9c0.5,0.6,1.3,0.9,2.3,0.9
				c0.8,0,1.6-0.3,2.3-1c0.7-0.6,1.4-1.8,2.3-3.6l8.9-17.4c1.1-2.2,1.8-3.7,2.2-4.4c2.1-4.2,4.1-7,6.2-8.4c2.6-1.8,7.3-2.7,14.1-2.7
				c12,0,17.9,2.7,17.9,8.2c0,1.2-0.2,2.2-0.7,2.9c-0.5,0.7-1.4,1.6-2.9,2.7c-1.9,1.5-3.2,3.6-3.7,6.4c-1,5.8-1.5,12.9-1.5,21.3
				c0,10.8,0.5,20.2,1.5,28.4c0.3,2,0.6,3.3,1.2,4.1c0.5,0.7,1.9,1.8,4.1,3.2c1.5,1,2.3,2.4,2.3,4.1c0,3-2,5.1-5.9,6.3
				c-2,0.7-4.2,1.1-6.4,1.3c-2.2,0.2-5.7,0.3-10.3,0.3c-7.1,0-12.5-0.5-16-1.5c-3.9-1.1-5.8-3.1-5.8-5.8c0-1,0.3-1.8,0.8-2.5
				s1.8-1.8,3.9-3.6c1.1-0.9,1.8-2.6,2.3-5.1c0.4-2.5,0.6-6.9,0.6-12.9c0-3.4-0.2-5.6-0.5-6.7c-0.3-1.1-1-1.6-2-1.6
				c-1.2,0-2.3,0.8-3.4,2.4C70.2,141.4,68.6,144.7,66.4,149.5z"/>
		</g>
		<g class="st0">
			<path class="st2" d="M66.4,149.5l-7.6,17.1c-1.3,2.9-2.4,4.8-3.2,5.8s-1.7,1.5-2.7,1.5c-0.9,0-1.8-0.4-2.5-1.2
				c-0.5-0.5-1.5-2.4-3.2-5.6c-1.7-3.2-3.1-6.1-4.2-8.6l-8.4-18.8c-1.1-2.6-2.3-3.9-3.6-3.9c-1.4,0-2.1,1.1-2.2,3.4
				c-0.3,5-0.4,9.6-0.4,13.8c0,4.4,0.2,7.4,0.6,8.9c0.3,0.9,0.7,1.6,1.2,2s1.8,1.2,4,2.3c1.4,0.7,2.1,2,2.1,3.7
				c0,4.7-6.1,7.1-18.2,7.1c-10.2,0-15.3-2.3-15.3-6.9c0-1.2,0.3-2,0.8-2.6c0.5-0.5,1.9-1.3,4.1-2.4c1.4-0.6,2.3-1.5,2.8-2.6
				s0.9-3.2,1.2-6.4c0.4-3.4,0.7-8.9,1.1-16.6c0.3-7.7,0.5-14.3,0.5-19.8c0-6.9-0.5-11.6-1.6-14c-0.4-0.8-0.8-1.5-1.3-1.9
				s-1.4-1-2.8-1.6c-3-1.4-4.5-3.3-4.5-5.6c0-1.5,0.6-2.8,1.7-4.1c1.1-1.2,2.6-2.1,4.5-2.6s4.3-1,7.5-1.4c3.1-0.4,5.7-0.6,7.9-0.6
				c5.4,0,9.2,0.4,11.5,1.3c1.1,0.4,2,1,2.6,1.7s1.5,2.2,2.7,4.4l13.2,24.3c1.4,2.7,2.4,4.3,3,4.9c0.5,0.6,1.3,0.9,2.3,0.9
				c0.8,0,1.6-0.3,2.3-1c0.7-0.6,1.4-1.8,2.3-3.6l8.9-17.4c1.1-2.2,1.8-3.7,2.2-4.4c2.1-4.2,4.1-7,6.2-8.4c2.6-1.8,7.3-2.7,14.1-2.7
				c12,0,17.9,2.7,17.9,8.2c0,1.2-0.2,2.2-0.7,2.9c-0.5,0.7-1.4,1.6-2.9,2.7c-1.9,1.5-3.2,3.6-3.7,6.4c-1,5.8-1.5,12.9-1.5,21.3
				c0,10.8,0.5,20.2,1.5,28.4c0.3,2,0.6,3.3,1.2,4.1c0.5,0.7,1.9,1.8,4.1,3.2c1.5,1,2.3,2.4,2.3,4.1c0,3-2,5.1-5.9,6.3
				c-2,0.7-4.2,1.1-6.4,1.3c-2.2,0.2-5.7,0.3-10.3,0.3c-7.1,0-12.5-0.5-16-1.5c-3.9-1.1-5.8-3.1-5.8-5.8c0-1,0.3-1.8,0.8-2.5
				s1.8-1.8,3.9-3.6c1.1-0.9,1.8-2.6,2.3-5.1c0.4-2.5,0.6-6.9,0.6-12.9c0-3.4-0.2-5.6-0.5-6.7c-0.3-1.1-1-1.6-2-1.6
				c-1.2,0-2.3,0.8-3.4,2.4C70.2,141.4,68.6,144.7,66.4,149.5z"/>
		</g>
	</g>
	<g id="T">
		<g class="st0">
			<path class="st1" d="M341.1,3h33.4c3.6-0.1,6.9-0.6,9.8-1.5c1.3-0.3,2.4-0.5,3.4-0.5c3.4,0,6.8,2.5,10,7.6s4.9,10.3,4.9,15.7
				c0,3.7-1.1,6.4-3.4,8.1c-1.7,1.3-3.7,1.9-6.1,1.9c-2.2,0-4.2-0.6-5.8-1.9c-1.6-1.3-3.3-3.3-4.9-6.2c-1.4-2.6-2.5-4.3-3.3-5.1
				s-1.8-1.2-2.9-1.2c-1.6,0-2.7,0.7-3.4,2c-0.7,1.3-1,3.5-1,6.5v35.5c0,3.6,0.4,6.3,1.1,7.9c0.8,1.6,2.2,2.9,4.3,3.8
				c2.3,1,3.8,1.9,4.7,2.8c0.8,0.9,1.2,2.1,1.2,3.6c0,3-2.1,5.3-6.2,6.8s-10.5,2.2-19,2.2c-10.5,0-18.3-0.9-23.3-2.6
				c-4.3-1.4-6.4-3.8-6.4-7c0-1.7,0.8-3.1,2.3-4.1c0.4-0.2,1.9-0.7,4.5-1.5c1.6-0.5,2.7-1.4,3.3-2.7c0.6-1.3,1.1-3.8,1.5-7.5
				c0.3-3.3,0.7-8.6,1-16s0.4-13.8,0.4-19.2c0-3.8-0.3-6.5-0.9-8.1c-0.6-1.6-1.6-2.4-2.9-2.4c-1.6,0-3.3,1.2-4.8,3.6
				c-2.8,4.3-5.2,7.2-7,8.6c-2.2,1.6-4.2,2.5-6.3,2.5c-2.3,0-4.2-0.9-5.6-2.6c-1.5-1.7-2.2-3.9-2.2-6.6c0-2.6,0.6-5.5,1.8-8.7
				c1.2-3.1,2.8-6.1,4.8-8.7c3.2-4.3,6.4-6.5,9.5-6.5c0.8,0,1.8,0.1,2.9,0.4c2.3,0.5,4.2,0.8,5.6,1C337.5,2.9,339.2,3,341.1,3z"/>
		</g>
		<g class="st0">
			<path class="st2" d="M341.1,3h33.4c3.6-0.1,6.9-0.6,9.8-1.5c1.3-0.3,2.4-0.5,3.4-0.5c3.4,0,6.8,2.5,10,7.6s4.9,10.3,4.9,15.7
				c0,3.7-1.1,6.4-3.4,8.1c-1.7,1.3-3.7,1.9-6.1,1.9c-2.2,0-4.2-0.6-5.8-1.9c-1.6-1.3-3.3-3.3-4.9-6.2c-1.4-2.6-2.5-4.3-3.3-5.1
				s-1.8-1.2-2.9-1.2c-1.6,0-2.7,0.7-3.4,2c-0.7,1.3-1,3.5-1,6.5v35.5c0,3.6,0.4,6.3,1.1,7.9c0.8,1.6,2.2,2.9,4.3,3.8
				c2.3,1,3.8,1.9,4.7,2.8c0.8,0.9,1.2,2.1,1.2,3.6c0,3-2.1,5.3-6.2,6.8s-10.5,2.2-19,2.2c-10.5,0-18.3-0.9-23.3-2.6
				c-4.3-1.4-6.4-3.8-6.4-7c0-1.7,0.8-3.1,2.3-4.1c0.4-0.2,1.9-0.7,4.5-1.5c1.6-0.5,2.7-1.4,3.3-2.7c0.6-1.3,1.1-3.8,1.5-7.5
				c0.3-3.3,0.7-8.6,1-16s0.4-13.8,0.4-19.2c0-3.8-0.3-6.5-0.9-8.1c-0.6-1.6-1.6-2.4-2.9-2.4c-1.6,0-3.3,1.2-4.8,3.6
				c-2.8,4.3-5.2,7.2-7,8.6c-2.2,1.6-4.2,2.5-6.3,2.5c-2.3,0-4.2-0.9-5.6-2.6c-1.5-1.7-2.2-3.9-2.2-6.6c0-2.6,0.6-5.5,1.8-8.7
				c1.2-3.1,2.8-6.1,4.8-8.7c3.2-4.3,6.4-6.5,9.5-6.5c0.8,0,1.8,0.1,2.9,0.4c2.3,0.5,4.2,0.8,5.6,1C337.5,2.9,339.2,3,341.1,3z"/>
		</g>
	</g>
	<g id="S-2">
		<g class="st0">
			<path class="st1" d="M282.3,1.2c4.4,0,10.1,1.1,17.1,3.2c0.8,0.3,1.5,0.4,2,0.4c0.4,0,1.7-0.4,3.8-1.1c0.7-0.3,1.4-0.4,2.2-0.4
				c2.8,0,5.8,2.2,9,6.7c3.1,4.5,4.7,8.8,4.7,12.8c0,2.4-0.7,4.4-2.1,6s-3.1,2.4-5.2,2.4c-1.7,0-3.1-0.3-4.1-1c-1.1-0.7-3.4-2.7-7-6
				c-5.1-4.7-10.1-7.1-15-7.1c-2.4,0-4.3,0.6-5.7,1.7c-1.4,1.1-2.1,2.6-2.1,4.5c0,3.7,3.2,6.4,9.7,8.3c8.8,2.6,14.4,4.5,16.8,5.6
				c10.8,5.2,16.2,13,16.2,23.2c0,9-3.7,16.4-11,22.1c-7.5,5.8-17.4,8.8-29.5,8.8c-5.4,0-11.1-0.6-17.1-1.9s-10.3-2.8-13-4.5
				c-2-1.4-3.9-4.3-5.5-8.8s-2.4-9-2.4-13.3c0-2.1,0.4-3.6,1.3-4.7c1.1-1.4,2.4-2,4-2s3.1,0.8,4.6,2.5c0.9,0.9,3,3.9,6.3,8.9
				c1.6,2.4,4,4.3,7.5,5.9c3.4,1.6,6.9,2.3,10.6,2.3c3.1,0,5.7-0.6,7.6-1.7c1.9-1.2,2.9-2.7,2.9-4.5c0-1.7-0.8-3.1-2.3-4.4
				c-1.5-1.2-4-2.4-7.4-3.4c-6-1.9-10.7-3.6-13.8-5.2c-3.2-1.6-6.1-3.6-8.9-6c-6.7-5.9-10-12.6-10-20.2c0-3.7,0.9-7.3,2.6-10.9
				c1.7-3.5,4.2-6.6,7.4-9.2C263.4,4.2,272.1,1.2,282.3,1.2z"/>
		</g>
		<g class="st0">
			<path class="st2" d="M282.3,1.2c4.4,0,10.1,1.1,17.1,3.2c0.8,0.3,1.5,0.4,2,0.4c0.4,0,1.7-0.4,3.8-1.1c0.7-0.3,1.4-0.4,2.2-0.4
				c2.8,0,5.8,2.2,9,6.7c3.1,4.5,4.7,8.8,4.7,12.8c0,2.4-0.7,4.4-2.1,6s-3.1,2.4-5.2,2.4c-1.7,0-3.1-0.3-4.1-1c-1.1-0.7-3.4-2.7-7-6
				c-5.1-4.7-10.1-7.1-15-7.1c-2.4,0-4.3,0.6-5.7,1.7c-1.4,1.1-2.1,2.6-2.1,4.5c0,3.7,3.2,6.4,9.7,8.3c8.8,2.6,14.4,4.5,16.8,5.6
				c10.8,5.2,16.2,13,16.2,23.2c0,9-3.7,16.4-11,22.1c-7.5,5.8-17.4,8.8-29.5,8.8c-5.4,0-11.1-0.6-17.1-1.9s-10.3-2.8-13-4.5
				c-2-1.4-3.9-4.3-5.5-8.8s-2.4-9-2.4-13.3c0-2.1,0.4-3.6,1.3-4.7c1.1-1.4,2.4-2,4-2s3.1,0.8,4.6,2.5c0.9,0.9,3,3.9,6.3,8.9
				c1.6,2.4,4,4.3,7.5,5.9c3.4,1.6,6.9,2.3,10.6,2.3c3.1,0,5.7-0.6,7.6-1.7c1.9-1.2,2.9-2.7,2.9-4.5c0-1.7-0.8-3.1-2.3-4.4
				c-1.5-1.2-4-2.4-7.4-3.4c-6-1.9-10.7-3.6-13.8-5.2c-3.2-1.6-6.1-3.6-8.9-6c-6.7-5.9-10-12.6-10-20.2c0-3.7,0.9-7.3,2.6-10.9
				c1.7-3.5,4.2-6.6,7.4-9.2C263.4,4.2,272.1,1.2,282.3,1.2z"/>
		</g>
	</g>
	<g id="O">
		<path class="st3" d="M163,88.6c0,0,44.2-192.4,99.3,0c0,0-17.9,20.5-31.3,0c0,0-17.9-10.8-26.8,2.2c0,0-16.4,11.7-20.9,0.4
			C183.4,91.3,166.5,77.9,163,88.6L163,88.6z"/>
		<g class="st0">
			<path class="st4" d="M203.4,25c2,0,3.8,0.6,5.3,1.7c1,0.8,1.9,1.8,2.5,3.1s0.9,2.5,0.9,3.8c0,1.9-0.6,3.5-1.9,5
				c-1,1.3-2.4,2.2-4.1,2.7c-1,0.3-2.1,0.5-3.1,0.5c-1.4,0-2.7-0.3-3.9-0.9c-1.5-0.7-2.7-1.7-3.6-3.1c-0.8-1.3-1.2-2.8-1.2-4.5
				c0-1.9,0.5-3.6,1.6-5c1-1.3,2.2-2.2,3.8-2.8C200.9,25.2,202.1,25,203.4,25z M202.3,28.4c-0.7,0-1.2,0.3-1.6,0.9
				c-0.3,0.4-0.5,1-0.5,1.6c0,0.9,0.2,1.9,0.5,3.1c0.4,1.2,0.8,2.2,1.4,3.1c0.2,0.4,0.5,0.7,0.9,0.9c0.4,0.2,0.7,0.3,1.1,0.3
				c0.6,0,1.1-0.2,1.5-0.7s0.6-1,0.6-1.8c0-1-0.2-2-0.5-3.1c-0.3-1.1-0.7-2.1-1.2-2.8c-0.3-0.5-0.7-0.9-1-1.1
				C203.1,28.5,202.7,28.4,202.3,28.4z"/>
			<path class="st4" d="M222.4,25c2,0,3.8,0.6,5.3,1.7c1,0.8,1.9,1.8,2.5,3.1s0.9,2.5,0.9,3.8c0,1.9-0.6,3.5-1.9,5
				c-1,1.3-2.4,2.2-4.1,2.7c-1,0.3-2.1,0.5-3.1,0.5c-1.4,0-2.7-0.3-3.9-0.9c-1.5-0.7-2.7-1.7-3.6-3.1c-0.8-1.3-1.2-2.8-1.2-4.5
				c0-1.9,0.5-3.6,1.6-5c1-1.3,2.2-2.2,3.8-2.8C219.9,25.2,221.1,25,222.4,25z M221.3,28.4c-0.7,0-1.2,0.3-1.6,0.9
				c-0.3,0.4-0.5,1-0.5,1.6c0,0.9,0.2,1.9,0.5,3.1c0.4,1.2,0.8,2.2,1.4,3.1c0.2,0.4,0.5,0.7,0.9,0.9c0.4,0.2,0.7,0.3,1.1,0.3
				c0.6,0,1.1-0.2,1.5-0.7s0.6-1,0.6-1.8c0-1-0.2-2-0.5-3.1c-0.3-1.1-0.7-2.1-1.2-2.8c-0.3-0.5-0.7-0.9-1-1.1
				C222.1,28.5,221.7,28.4,221.3,28.4z"/>
		</g>
		<g class="st0">
			<path class="st4" d="M209.9,44.7c3.8,0,7.1,1.4,9.9,4.2c2.7,2.8,4.1,6.1,4.1,10c0,4-1.4,7.3-4.1,10.1c-2.8,2.8-6.1,4.1-10.1,4.1
				c-3.9,0-7.3-1.4-10-4.2c-2.8-2.8-4.2-6.1-4.2-10c0-4,1.4-7.3,4.2-10.1C202.5,46,205.9,44.7,209.9,44.7z M209.7,52.6
				c-1.7,0-3.1,0.6-4.2,1.8s-1.7,2.7-1.7,4.4s0.6,3.2,1.8,4.4c1.2,1.2,2.6,1.8,4.2,1.8c1.7,0,3.1-0.6,4.2-1.8s1.7-2.7,1.7-4.4
				c0-1.7-0.6-3.2-1.7-4.4S211.4,52.6,209.7,52.6z"/>
		</g>
	</g>
	<g id="H">
		<g class="st0">
			<path class="st1" d="M97.1,1.6c13.2,0,19.8,2.7,19.8,8.2c0,1.5-0.3,2.7-1,3.6c-0.7,0.9-2,2-3.9,3.1c-1.6,1-2.7,2.3-3.1,4
				c-0.4,1.6-0.7,5-0.7,10c0,3,0.5,4.8,1.6,5.5c0.6,0.4,1.6,0.7,2.9,0.8s4.3,0.1,9.1,0.1c4.4,0,7.1-0.2,8.1-0.7
				c1.1-0.5,1.6-1.6,1.6-3.5c0-5.6-0.3-9.5-0.8-11.7s-1.5-3.7-3-4.5c-1.9-1.1-3.1-2-3.7-2.7s-0.9-1.7-0.9-2.9c0-1.7,0.7-3.3,2-4.7
				c1.3-1.4,3-2.4,5.1-2.9c4.4-1.1,9.9-1.6,16.6-1.6c7.8,0,13.5,0.7,17.2,2.1s5.6,3.6,5.6,6.6c0,2.5-1.3,4.4-3.9,5.7
				c-1.6,0.8-2.7,1.5-3.2,2.2s-0.9,2-1.2,3.9c-0.2,1.1-0.4,5.8-0.6,14.1c-0.3,8.3-0.4,14.9-0.4,19.9c0,8.6,0.3,14,1,16.4
				c0.3,1.3,0.7,2.1,1.1,2.5c0.4,0.4,1.8,1.3,4,2.5c1.6,0.9,2.4,2.2,2.4,4.1c0,3.2-1.9,5.5-5.7,7s-10,2.2-18.6,2.2
				c-7.5,0-13.1-0.7-16.7-2.2c-3.3-1.4-4.9-3.4-4.9-6.3c0-2.4,1.2-4.3,3.7-5.6c1.2-0.7,2.1-1.4,2.5-2c0.4-0.7,0.9-1.9,1.3-3.7
				c0.8-3.6,1.1-7.9,1.1-13.1c0-2.7-0.4-4.3-1.2-4.9s-2.8-1-6.1-1c-7.6,0-12.4,0.4-14.5,1.3c-0.8,0.3-1.4,1.3-1.6,3
				c-0.3,2-0.4,4.5-0.4,7.5c0,4.8,0.7,8.3,2,10.4c0.5,0.7,1.6,1.5,3.3,2.6c1.8,1,2.7,2.7,2.7,5c0,3-2.1,5.2-6.2,6.8
				c-4.1,1.6-10,2.3-17.6,2.3c-6.9,0-12.6-0.7-17-2.2c-1.9-0.6-3.4-1.5-4.5-2.7s-1.6-2.4-1.6-3.8s0.3-2.5,1-3.2
				c0.7-0.8,2.2-1.7,4.4-2.9c1.2-0.6,2-1.4,2.5-2.3s0.9-2.5,1.1-4.7c0.6-4.9,1-11.4,1-19.4c0-1.5,0-3.2-0.1-5.3
				c-0.2-10.1-0.3-15.9-0.3-17.4c0-3.6-0.3-6-0.9-7.2c-0.7-1.2-2.4-2.4-5.2-3.8c-1.9-0.9-2.8-2.2-2.8-4c0-4.3,4.1-7.2,12.4-8.9
				C87,2.1,92,1.6,97.1,1.6z"/>
		</g>
		<g class="st0">
			<path class="st2" d="M97.1,1.6c13.2,0,19.8,2.7,19.8,8.2c0,1.5-0.3,2.7-1,3.6c-0.7,0.9-2,2-3.9,3.1c-1.6,1-2.7,2.3-3.1,4
				c-0.4,1.6-0.7,5-0.7,10c0,3,0.5,4.8,1.6,5.5c0.6,0.4,1.6,0.7,2.9,0.8s4.3,0.1,9.1,0.1c4.4,0,7.1-0.2,8.1-0.7
				c1.1-0.5,1.6-1.6,1.6-3.5c0-5.6-0.3-9.5-0.8-11.7s-1.5-3.7-3-4.5c-1.9-1.1-3.1-2-3.7-2.7s-0.9-1.7-0.9-2.9c0-1.7,0.7-3.3,2-4.7
				c1.3-1.4,3-2.4,5.1-2.9c4.4-1.1,9.9-1.6,16.6-1.6c7.8,0,13.5,0.7,17.2,2.1s5.6,3.6,5.6,6.6c0,2.5-1.3,4.4-3.9,5.7
				c-1.6,0.8-2.7,1.5-3.2,2.2s-0.9,2-1.2,3.9c-0.2,1.1-0.4,5.8-0.6,14.1c-0.3,8.3-0.4,14.9-0.4,19.9c0,8.6,0.3,14,1,16.4
				c0.3,1.3,0.7,2.1,1.1,2.5c0.4,0.4,1.8,1.3,4,2.5c1.6,0.9,2.4,2.2,2.4,4.1c0,3.2-1.9,5.5-5.7,7s-10,2.2-18.6,2.2
				c-7.5,0-13.1-0.7-16.7-2.2c-3.3-1.4-4.9-3.4-4.9-6.3c0-2.4,1.2-4.3,3.7-5.6c1.2-0.7,2.1-1.4,2.5-2c0.4-0.7,0.9-1.9,1.3-3.7
				c0.8-3.6,1.1-7.9,1.1-13.1c0-2.7-0.4-4.3-1.2-4.9s-2.8-1-6.1-1c-7.6,0-12.4,0.4-14.5,1.3c-0.8,0.3-1.4,1.3-1.6,3
				c-0.3,2-0.4,4.5-0.4,7.5c0,4.8,0.7,8.3,2,10.4c0.5,0.7,1.6,1.5,3.3,2.6c1.8,1,2.7,2.7,2.7,5c0,3-2.1,5.2-6.2,6.8
				c-4.1,1.6-10,2.3-17.6,2.3c-6.9,0-12.6-0.7-17-2.2c-1.9-0.6-3.4-1.5-4.5-2.7s-1.6-2.4-1.6-3.8s0.3-2.5,1-3.2
				c0.7-0.8,2.2-1.7,4.4-2.9c1.2-0.6,2-1.4,2.5-2.3s0.9-2.5,1.1-4.7c0.6-4.9,1-11.4,1-19.4c0-1.5,0-3.2-0.1-5.3
				c-0.2-10.1-0.3-15.9-0.3-17.4c0-3.6-0.3-6-0.9-7.2c-0.7-1.2-2.4-2.4-5.2-3.8c-1.9-0.9-2.8-2.2-2.8-4c0-4.3,4.1-7.2,12.4-8.9
				C87,2.1,92,1.6,97.1,1.6z"/>
		</g>
	</g>
	<g id="G">
		<g class="st0">
			<path class="st1" d="M49.3,1.2C54.8,1.2,60.1,2,65,3.5c2.2,0.7,3.7,1.1,4.5,1.1s2.6-0.5,5.3-1.5c0.9-0.3,1.8-0.4,2.7-0.4
				c2.4,0,4.6,1.4,6.8,4.2c3.5,4.5,5.2,9.4,5.2,14.7c0,3.6-0.9,6.6-2.8,8.8s-4.3,3.4-7.3,3.4c-2.5,0-4.9-0.9-7.2-2.7
				c-0.7-0.5-2.5-2.5-5.3-6c-4.5-5.6-9.9-8.5-15.9-8.5c-5.5,0-9.9,2-13.1,6c-3.2,4-4.9,9.4-4.9,16.2c0,10.1,2.6,18.7,7.7,25.8
				c1.9,2.6,4.3,4.6,7,6.2c2.7,1.5,5.4,2.3,8.1,2.3c2.2,0,4-0.7,5.4-2.2s2.1-3.3,2.1-5.6c0-2-0.6-3.5-1.8-4.3
				c-0.5-0.3-0.9-0.5-1.3-0.6c-0.4-0.1-1.6-0.1-3.6-0.1c-1.8,0-3.3-0.6-4.5-1.7s-1.8-2.6-1.8-4.4c0-3.5,2.3-6,7-7.5
				c5.1-1.6,11-2.4,17.7-2.4c7.1,0,13.2,0.7,18,2.2c4.6,1.4,6.9,4,6.9,7.8c0,1.5-0.5,2.8-1.6,4c-1.1,1.1-2.4,1.8-4.1,2
				c-1.5,0.2-2.4,0.5-2.9,1c-0.4,0.4-0.9,1.5-1.4,3.3c-1.8,6.7-5.4,12.3-10.7,16.9c-3.6,3.1-8,5.5-13.2,7.2s-10.5,2.6-16.2,2.6
				c-9.3,0-17.8-2.1-25.5-6.4c-8-4.4-14-10.4-18.1-18.3C2.8,60.1,1,53,1,45.5c0-7.7,2.1-14.9,6.2-21.8c4.4-7.4,10.5-13.1,18.5-17.1
				C32.6,3,40.5,1.2,49.3,1.2z"/>
		</g>
		<g class="st0">
			<path class="st2" d="M49.3,1.2C54.8,1.2,60.1,2,65,3.5c2.2,0.7,3.7,1.1,4.5,1.1s2.6-0.5,5.3-1.5c0.9-0.3,1.8-0.4,2.7-0.4
				c2.4,0,4.6,1.4,6.8,4.2c3.5,4.5,5.2,9.4,5.2,14.7c0,3.6-0.9,6.6-2.8,8.8s-4.3,3.4-7.3,3.4c-2.5,0-4.9-0.9-7.2-2.7
				c-0.7-0.5-2.5-2.5-5.3-6c-4.5-5.6-9.9-8.5-15.9-8.5c-5.5,0-9.9,2-13.1,6c-3.2,4-4.9,9.4-4.9,16.2c0,10.1,2.6,18.7,7.7,25.8
				c1.9,2.6,4.3,4.6,7,6.2c2.7,1.5,5.4,2.3,8.1,2.3c2.2,0,4-0.7,5.4-2.2s2.1-3.3,2.1-5.6c0-2-0.6-3.5-1.8-4.3
				c-0.5-0.3-0.9-0.5-1.3-0.6c-0.4-0.1-1.6-0.1-3.6-0.1c-1.8,0-3.3-0.6-4.5-1.7s-1.8-2.6-1.8-4.4c0-3.5,2.3-6,7-7.5
				c5.1-1.6,11-2.4,17.7-2.4c7.1,0,13.2,0.7,18,2.2c4.6,1.4,6.9,4,6.9,7.8c0,1.5-0.5,2.8-1.6,4c-1.1,1.1-2.4,1.8-4.1,2
				c-1.5,0.2-2.4,0.5-2.9,1c-0.4,0.4-0.9,1.5-1.4,3.3c-1.8,6.7-5.4,12.3-10.7,16.9c-3.6,3.1-8,5.5-13.2,7.2s-10.5,2.6-16.2,2.6
				c-9.3,0-17.8-2.1-25.5-6.4c-8-4.4-14-10.4-18.1-18.3C2.8,60.1,1,53,1,45.5c0-7.7,2.1-14.9,6.2-21.8c4.4-7.4,10.5-13.1,18.5-17.1
				C32.6,3,40.5,1.2,49.3,1.2z"/>
		</g>
	</g>
</g>
</svg>
